<svg width="24" height="24" viewBox="0 0 24 24" fill="none" xmlns="http://www.w3.org/2000/svg">
<path d="M15.0281 5.71397C16.1027 5.21002 17.4228 5.40196 18.3105 6.28964C19.1981 7.17732 19.3901 8.49736 18.8861 9.57201C20.0024 9.97555 20.8 11.0447 20.8 12.3C20.8 13.5554 20.0024 14.6245 18.8861 15.0281C19.3901 16.1027 19.1981 17.4228 18.3105 18.3105C17.4228 19.1981 16.1027 19.3901 15.0281 18.8861C14.6245 20.0024 13.5554 20.8 12.3 20.8C11.0447 20.8 9.97555 20.0024 9.57201 18.8861C8.49736 19.3901 7.17732 19.1981 6.28964 18.3105C5.40196 17.4228 5.21002 16.1027 5.71397 15.0281C4.59774 14.6245 3.80005 13.5554 3.80005 12.3C3.80005 11.0447 4.59774 9.97555 5.71397 9.57201C5.21002 8.49736 5.40196 7.17732 6.28964 6.28964C7.17732 5.40196 8.49736 5.21002 9.572 5.71397C9.97555 4.59774 11.0447 3.80005 12.3 3.80005C13.5554 3.80005 14.6245 4.59774 15.0281 5.71397Z" fill="#C2CCDE" fill-opacity="0.25"/>
<path d="M9.15544 10.95C8.74272 10.5373 8.74272 9.86814 9.15544 9.45543C9.56815 9.04272 10.2373 9.04272 10.65 9.45543C11.0627 9.86814 11.0627 10.5373 10.65 10.95C10.2373 11.3627 9.56815 11.3627 9.15544 10.95Z" fill="#C2CCDE" fill-opacity="0.25"/>
<path d="M13.3402 15.1348C12.9275 14.7221 12.9275 14.0529 13.3402 13.6402C13.7529 13.2275 14.4221 13.2275 14.8348 13.6402C15.2475 14.0529 15.2475 14.7221 14.8348 15.1348C14.4221 15.5475 13.7529 15.5475 13.3402 15.1348Z" fill="#C2CCDE" fill-opacity="0.25"/>
<path d="M15.2084 8.93233L8.63234 15.5084M18.3105 6.28964C17.4228 5.40196 16.1027 5.21002 15.0281 5.71397C14.6245 4.59774 13.5554 3.80005 12.3 3.80005C11.0447 3.80005 9.97555 4.59774 9.572 5.71397C8.49736 5.21002 7.17732 5.40196 6.28964 6.28964C5.40196 7.17732 5.21002 8.49736 5.71397 9.57201C4.59774 9.97555 3.80005 11.0447 3.80005 12.3C3.80005 13.5554 4.59774 14.6245 5.71397 15.0281C5.21002 16.1027 5.40196 17.4228 6.28964 18.3105C7.17732 19.1981 8.49736 19.3901 9.57201 18.8861C9.97555 20.0024 11.0447 20.8 12.3 20.8C13.5554 20.8 14.6245 20.0024 15.0281 18.8861C16.1027 19.3901 17.4228 19.1981 18.3105 18.3105C19.1981 17.4228 19.3901 16.1027 18.8861 15.0281C20.0024 14.6245 20.8 13.5554 20.8 12.3C20.8 11.0447 20.0024 9.97555 18.8861 9.57201C19.3901 8.49736 19.1981 7.17732 18.3105 6.28964ZM10.65 10.95C10.2373 11.3627 9.56815 11.3627 9.15544 10.95C8.74272 10.5373 8.74272 9.86815 9.15544 9.45543C9.56815 9.04272 10.2373 9.04272 10.65 9.45543C11.0627 9.86814 11.0627 10.5373 10.65 10.95ZM14.8348 15.1348C14.4221 15.5475 13.7529 15.5475 13.3402 15.1348C12.9275 14.7221 12.9275 14.0529 13.3402 13.6402C13.7529 13.2275 14.4221 13.2275 14.8348 13.6402C15.2475 14.0529 15.2475 14.7221 14.8348 15.1348Z" stroke="#414141" stroke-linecap="round" stroke-linejoin="round"/>
</svg>
