<svg width="12" height="12" viewBox="0 0 12 12" fill="none" xmlns="http://www.w3.org/2000/svg">
<path d="M4.79818 2.44312L4.47004 3.3004H2.0999C1.85137 3.3004 1.6499 3.50187 1.6499 3.7504V9.1504C1.6499 9.39893 1.85137 9.6004 2.0999 9.6004H5.23113C5.07033 9.53816 4.91318 9.46316 4.76115 9.37539C3.71615 8.77206 3.0724 7.65705 3.0724 6.45039C3.0724 5.24373 3.71615 4.12872 4.76115 3.52539C5.80615 2.92206 7.09365 2.92206 8.13865 3.52539C9.18365 4.12872 9.8274 5.24373 9.8274 6.45039C9.8274 7.65705 9.18365 8.77206 8.13865 9.37539C7.98663 9.46316 7.82947 9.53816 7.66867 9.6004H9.5999C9.84843 9.6004 10.0499 9.39893 10.0499 9.1504V3.7504C10.0499 3.50187 9.84843 3.3004 9.5999 3.3004H8.44793L8.11979 2.44312C8.07535 2.32702 7.96392 2.25036 7.83961 2.25036H5.07836C4.95405 2.25036 4.84262 2.32702 4.79818 2.44312Z" fill="#C2CCDE" fill-opacity="0.25"/>
<path d="M3.58717 3.30039H2.41783L2.49747 2.93629C2.52759 2.79856 2.64955 2.70039 2.79054 2.70039H3.21446C3.35544 2.70039 3.4774 2.79856 3.50753 2.93629L3.58717 3.30039Z" fill="#C2CCDE" fill-opacity="0.25"/>
<path d="M7.62443 2.25039H5.28575L5.46958 1.83016C5.51736 1.72095 5.62524 1.65039 5.74444 1.65039H7.16575C7.28494 1.65039 7.39283 1.72095 7.4406 1.83015L7.62443 2.25039Z" fill="#C2CCDE" fill-opacity="0.25"/>
<path d="M4.76115 3.52539C5.80615 2.92206 7.09365 2.92206 8.13865 3.52539C9.18365 4.12872 9.8274 5.24373 9.8274 6.45039C9.8274 7.65705 9.18365 8.77206 8.13865 9.37539C7.09365 9.97872 5.80615 9.97872 4.76115 9.37539C3.71615 8.77206 3.0724 7.65705 3.0724 6.45039C3.0724 5.24373 3.71615 4.12872 4.76115 3.52539Z" fill="#C2CCDE" fill-opacity="0.25"/>
<path d="M5.41067 4.6504C6.05375 4.27912 6.84605 4.27912 7.48913 4.6504C8.13221 5.02168 8.52836 5.70783 8.52836 6.4504C8.52836 7.19296 8.13221 7.87912 7.48913 8.2504C6.84605 8.62168 6.05375 8.62168 5.41067 8.2504C4.76759 7.87912 4.37144 7.19296 4.37144 6.4504C4.37144 5.70783 4.76759 5.02168 5.41067 4.6504Z" fill="#C2CCDE" fill-opacity="0.25"/>
<path d="M4.76115 9.37539C4.91318 9.46316 5.07033 9.53816 5.23113 9.6004H2.0999C1.85137 9.6004 1.6499 9.39893 1.6499 9.1504V3.7504C1.6499 3.50187 1.85137 3.3004 2.0999 3.3004H4.47004L4.79818 2.44312C4.84262 2.32702 4.95405 2.25036 5.07836 2.25036H7.83961C7.96392 2.25036 8.07535 2.32702 8.11979 2.44312L8.44793 3.3004H9.5999C9.84843 3.3004 10.0499 3.50187 10.0499 3.7504V9.1504C10.0499 9.39893 9.84843 9.6004 9.5999 9.6004H7.66867C7.82947 9.53816 7.98663 9.46316 8.13865 9.37539M4.76115 9.37539C3.71615 8.77206 3.0724 7.65705 3.0724 6.45039C3.0724 5.24373 3.71615 4.12872 4.76115 3.52539C5.80615 2.92206 7.09365 2.92206 8.13865 3.52539C9.18365 4.12872 9.8274 5.24373 9.8274 6.45039C9.8274 7.65705 9.18365 8.77206 8.13865 9.37539M4.76115 9.37539C5.80615 9.97872 7.09365 9.97872 8.13865 9.37539M5.46148 6.77121C5.42827 6.66899 5.41067 6.56085 5.41067 6.45021C5.41067 6.07899 5.60871 5.73598 5.9302 5.55037C6.0909 5.45759 6.27024 5.41119 6.44958 5.41117M3.58717 3.30039H2.41783L2.49747 2.93629C2.52759 2.79856 2.64955 2.70039 2.79054 2.70039H3.21446C3.35544 2.70039 3.4774 2.79856 3.50753 2.93629L3.58717 3.30039ZM7.62443 2.25039H5.28575L5.46958 1.83016C5.51736 1.72095 5.62524 1.65039 5.74444 1.65039H7.16575C7.28494 1.65039 7.39283 1.72095 7.4406 1.83015L7.62443 2.25039ZM4.37144 6.4504C4.37144 5.70783 4.76759 5.02168 5.41067 4.6504C6.05375 4.27912 6.84605 4.27912 7.48913 4.6504C8.13221 5.02168 8.52836 5.70783 8.52836 6.4504C8.52836 7.19296 8.13221 7.87912 7.48913 8.2504C6.84605 8.62168 6.05375 8.62168 5.41067 8.2504C4.76759 7.87912 4.37144 7.19296 4.37144 6.4504Z" stroke="#414141" stroke-width="0.5" stroke-linecap="round" stroke-linejoin="round"/>
</svg>
