<svg width="45" height="38" viewBox="0 0 45 38" fill="none" xmlns="http://www.w3.org/2000/svg">
<path d="M8.64812 12.9295C6.65238 12.9295 5.62427 11.899 5.62427 9.8986C5.62427 7.89819 6.65238 6.86768 8.64812 6.86768H40.0961C40.0961 6.86768 41.3057 6.86768 41.3057 8.08004V12.9295H8.64812Z" fill="#C89005"/>
<path d="M41.3057 13.5359H8.64812C6.28952 13.5359 5.0195 12.2629 5.0195 9.89882C5.0195 7.53471 6.28952 6.26172 8.64812 6.26172H40.0961C40.8219 6.26172 41.9104 6.74667 41.9104 8.08027V12.9297C41.9104 13.2935 41.6081 13.5359 41.3057 13.5359ZM40.0961 7.47409H8.64812C6.95476 7.47409 6.22904 8.20151 6.22904 9.89882C6.22904 11.5961 6.95476 12.3236 8.64812 12.3236H40.7009V8.08027C40.7009 7.59532 40.338 7.47409 40.0961 7.47409Z" fill="#231C1C"/>
<path d="M40.9428 22.3253C41.0637 22.9921 40.6404 23.5983 39.9751 23.7802L11.551 29.5995C10.8857 29.7208 10.2809 29.2964 10.0995 28.6296L6.59185 11.414C6.4709 10.7472 6.89424 10.141 7.55948 9.95915L35.9837 4.13978C36.6489 4.01855 37.2537 4.44288 37.4351 5.10968L40.9428 22.3253Z" fill="#C11F29"/>
<path d="M11.3092 30.2057C10.4625 30.2057 9.73676 29.5996 9.55533 28.7509L6.04766 11.5353C5.92671 11.0503 6.04766 10.5654 6.28957 10.141C6.53148 9.7167 6.95482 9.47423 7.43863 9.35299L35.8628 3.53362C36.8304 3.35177 37.7981 3.95795 37.9795 4.92785L41.4872 22.1435C41.6686 23.1134 41.0638 24.0833 40.0962 24.2651L11.672 30.0845C11.5511 30.2057 11.4301 30.2057 11.3092 30.2057ZM36.2257 4.74599H36.1047L7.68054 10.5654C7.37816 10.626 7.13625 10.9291 7.19673 11.2928L10.7044 28.5084C10.7649 28.8115 11.0673 29.054 11.4301 28.9934L39.8543 23.174C40.0357 23.1134 40.1567 23.0528 40.2171 22.9315C40.2776 22.8103 40.3381 22.6284 40.2776 22.4466L36.77 5.23094C36.77 4.92785 36.5281 4.74599 36.2257 4.74599Z" fill="#231C1C"/>
<path d="M38.7051 11.4141C38.7656 11.8384 38.3422 12.3234 37.677 12.4446L9.25282 18.264C8.58757 18.3852 7.9828 18.1427 7.92232 17.7184L7.49899 15.718C7.43851 15.2937 7.86185 14.8087 8.52709 14.6875L36.9513 8.86812C37.6165 8.74689 38.2213 8.98936 38.2818 9.41369L38.7051 11.4141Z" fill="#513328"/>
<path d="M8.89005 18.9308C8.10385 18.9308 7.43861 18.5064 7.31765 17.8396L6.89432 15.8998C6.71288 15.1118 7.37813 14.3238 8.40624 14.1419L36.8304 8.32254C37.798 8.14068 38.7052 8.56501 38.8866 9.35305L39.31 11.3535C39.4914 12.1415 38.8262 12.9295 37.798 13.1114L9.37387 18.9308H8.89005ZM37.3142 9.47429H37.0723L8.64815 15.2937C8.28529 15.3543 8.10385 15.5361 8.10385 15.6574L8.52719 17.5972C8.58767 17.6578 8.82958 17.7184 9.13196 17.6578L37.5561 11.8384C37.919 11.7778 38.1004 11.5959 38.1004 11.5353L37.6771 9.59552C37.6771 9.53491 37.5561 9.47429 37.3142 9.47429ZM22.3081 21.7956L27.6397 20.6978L27.8835 21.8859L22.5512 22.9831L22.3081 21.7956ZM19.2352 24.892L31.6766 22.3309L31.9197 23.519L19.4784 26.0801L19.2352 24.892Z" fill="#231C1C"/>
<path d="M37.7375 31.4184C37.556 32.0852 36.8908 32.4489 36.2256 32.2065L6.7128 23.1743C6.10803 22.9925 5.74516 22.3257 5.9266 21.6588L11.2486 4.26136C11.43 3.59456 12.0952 3.23084 12.7605 3.47332L42.3337 12.5055C42.9385 12.6873 43.3014 13.3541 43.1199 14.0209L37.7375 31.4184Z" fill="#B8CA43"/>
<path d="M36.5886 32.9337C36.4072 32.9337 36.2258 32.9337 36.0443 32.8731L6.53157 23.7803C6.04776 23.6591 5.68489 23.2954 5.44299 22.8711C5.20108 22.4467 5.20108 21.9618 5.32203 21.4768L10.644 4.07935C10.9464 3.10946 11.914 2.56389 12.8817 2.86698L42.4549 11.8991C43.4225 12.2022 43.9063 13.2327 43.6644 14.142L38.3424 31.5395C38.2215 32.0245 37.9191 32.3882 37.4958 32.6306C37.1934 32.8125 36.891 32.9337 36.5886 32.9337ZM12.3978 4.01873C12.1559 4.01873 11.914 4.20059 11.8535 4.44306L6.53157 21.8406C6.4711 22.0224 6.47109 22.1436 6.59205 22.3255C6.65253 22.4467 6.77348 22.568 6.95491 22.6286L36.4677 31.6607C36.5886 31.7214 36.7701 31.6607 36.891 31.6001C37.012 31.5395 37.1329 31.4183 37.1934 31.2364L42.5154 13.8389C42.6363 13.5358 42.4549 13.1721 42.1525 13.1115L12.5188 4.07935C12.4583 4.01873 12.4583 4.01873 12.3978 4.01873Z" fill="#231C1C"/>
<path d="M36.165 26.5082L39.0074 17.2335C37.7374 16.8698 37.0722 15.4756 37.435 14.2026L15.7843 7.59521C15.4214 8.8682 14.0304 9.59562 12.8209 9.23191L9.97849 18.5065C11.2485 18.8702 11.9137 20.2645 11.5509 21.5375L33.1412 28.1449C33.5645 26.8719 34.895 26.1445 36.165 26.5082Z" fill="#B8CA43"/>
<path d="M33.5646 28.8722L10.8253 21.9011L11.0067 21.2949C11.1277 20.81 11.1277 20.325 10.8858 19.9007C10.6439 19.4764 10.281 19.1733 9.85767 19.0521L9.2529 18.8702L12.4582 8.44383L13.0629 8.62568C13.9701 8.92877 14.9982 8.38321 15.3006 7.41331L15.482 6.80713L38.2214 13.7782L38.0399 14.3844C37.919 14.8694 37.919 15.3543 38.1609 15.7787C38.4028 16.203 38.7657 16.5061 39.189 16.6273L39.7938 16.8092L36.5885 27.2355L35.9837 27.0537C35.0766 26.7506 34.0485 27.2962 33.7461 28.2661L33.5646 28.8722ZM12.2767 21.1131L32.8389 27.4174C33.3832 26.3263 34.5323 25.7201 35.7418 25.8413L38.2818 17.5972C37.798 17.2941 37.3747 16.8698 37.0723 16.3848C36.7699 15.8393 36.7094 15.2937 36.7699 14.6875L16.2077 8.38321C15.6635 9.47434 14.4539 10.0805 13.3049 9.95929L10.7648 18.1428C11.2486 18.4459 11.672 18.8702 11.9744 19.3551C12.2163 19.9007 12.3372 20.5069 12.2767 21.1131Z" fill="#231C1C"/>
<path d="M21.9927 25.9756C23.956 26.5774 26.0998 26.2994 27.9523 25.2029C29.8049 24.1064 31.2145 22.2812 31.8711 20.1288C32.5277 17.9764 32.3775 15.6731 31.4535 13.7256C30.5295 11.7781 28.9075 10.346 26.9441 9.74429C24.9808 9.14257 22.8371 9.42053 20.9845 10.517C19.1319 11.6135 17.7223 13.4387 17.0657 15.5911C16.4091 17.7436 16.5593 20.0468 17.4833 21.9943C18.4073 23.9418 20.0294 25.3739 21.9927 25.9756Z" fill="#E1E0A6"/>
<path d="M24.0698 26.8717C23.3441 26.8717 22.5579 26.7505 21.8321 26.508C19.7154 25.8412 17.9616 24.3257 16.9335 22.2041C15.9659 20.0824 15.7844 17.6577 16.5102 15.3542C17.2359 13.0507 18.6873 11.1109 20.6831 9.95914C22.6788 8.74677 24.9769 8.44368 27.0936 9.11048C31.5085 10.4441 33.8671 15.4754 32.4156 20.2643C31.2665 24.2651 27.7589 26.8717 24.0698 26.8717ZM24.856 10.0198C23.6464 10.0198 22.4369 10.3835 21.2878 11.0503C19.534 12.0808 18.264 13.7781 17.6592 15.7785C17.0545 17.7789 17.1754 19.9006 18.0221 21.7191C18.8688 23.5377 20.3202 24.8107 22.1345 25.3562C25.8841 26.508 29.9965 24.0832 31.2665 19.9006C32.5366 15.7179 30.4803 11.414 26.7308 10.2622C26.1865 10.141 25.5212 10.0198 24.856 10.0198Z" fill="#231C1C"/>
<path d="M21.4164 25.7981L26.361 9.56445L27.518 9.91846L22.5734 26.1521L21.4164 25.7981Z" fill="#231C1C"/>
<path d="M23.5859 24.3867C23.223 24.3867 22.9206 24.3261 22.5578 24.2048C21.5901 23.9017 20.8039 23.2349 20.3806 22.3257C20.0177 21.477 19.9573 20.5677 20.1992 19.7191L21.3482 20.0828C21.1668 20.689 21.2273 21.2951 21.4692 21.8407C21.7716 22.4469 22.2554 22.9318 22.9206 23.1137C24.1907 23.4774 25.5211 22.75 25.884 21.477C26.2469 20.204 25.5816 18.8704 24.3116 18.4461C22.4368 17.8399 21.3482 15.8395 21.953 13.8997C22.2554 12.9904 22.8602 12.2024 23.7068 11.778C24.5535 11.2931 25.5211 11.2325 26.4283 11.475C27.3355 11.778 28.1217 12.3842 28.545 13.2329C28.9683 14.0815 29.0893 15.0514 28.7869 16.0213L27.6378 15.6576C27.8193 15.0514 27.7588 14.3846 27.4564 13.8391C27.154 13.2935 26.6702 12.8692 26.0654 12.6873C25.4607 12.5055 24.7954 12.5661 24.2511 12.8692C23.7068 13.1723 23.2835 13.6572 23.1021 14.324C22.7392 15.597 23.4045 16.9306 24.6745 17.3549C26.5493 17.9611 27.6378 19.9615 27.0331 21.9013C26.5493 23.3562 25.0978 24.3867 23.5859 24.3867Z" fill="#231C1C"/>
<path d="M43.12 35.9649C43.12 36.6317 42.5757 37.1772 41.9104 37.1772H6.83381C6.16856 37.1772 5.62427 36.6317 5.62427 35.9649V9.89893C5.62427 11.7175 6.83381 12.9298 8.64812 12.9298H41.9104C42.5757 12.9298 43.12 13.4754 43.12 14.1422V35.9649Z" fill="#EEBE00"/>
<path d="M41.9104 37.7831H6.83381C5.8057 37.7831 5.0195 36.9951 5.0195 35.9646V9.89866C5.0195 9.53495 5.26141 9.29248 5.62427 9.29248C5.98713 9.29248 6.22904 9.53495 6.22904 9.89866C6.22904 11.3535 7.19667 12.3234 8.64812 12.3234H41.9104C42.9386 12.3234 43.7248 13.1114 43.7248 14.142V35.9646C43.7248 36.9951 42.8781 37.7831 41.9104 37.7831ZM6.22904 12.6871V35.9646C6.22904 36.3283 6.47095 36.5708 6.83381 36.5708H41.9104C42.2733 36.5708 42.5152 36.3283 42.5152 35.9646V14.142C42.5152 13.7782 42.2733 13.5358 41.9104 13.5358H8.64812C7.68049 13.5358 6.83381 13.2327 6.22904 12.6871Z" fill="#231C1C"/>
<path d="M43.12 28.0843H36.0442C34.5927 28.0843 33.4437 26.9932 33.4437 25.6596V24.4472C33.4437 23.1136 34.5927 22.0225 36.0442 22.0225H43.1805V28.0843H43.12Z" fill="#C89005"/>
<path d="M43.12 28.6902H36.0442C34.2903 28.6902 32.8389 27.3566 32.8389 25.6593V24.4469C32.8389 22.7496 34.2903 21.416 36.0442 21.416H43.1805C43.5433 21.416 43.7852 21.6585 43.7852 22.0222V28.084C43.7248 28.4478 43.4828 28.6902 43.12 28.6902ZM36.0442 22.6284C34.9556 22.6284 34.0484 23.4164 34.0484 24.4469V25.6593C34.0484 26.6898 34.9556 27.4779 36.0442 27.4779H42.5757V22.6284H36.0442Z" fill="#231C1C"/>
<path d="M8.76895 15.3545H11.6718V16.5669H8.76895V15.3545Z" fill="#231C1C"/>
<path d="M13.6071 15.3545H16.51V16.5669H13.6071V15.3545Z" fill="#231C1C"/>
<path d="M18.4453 15.3545H21.3481V16.5669H18.4453V15.3545Z" fill="#231C1C"/>
<path d="M23.2834 15.3545H26.1863V16.5669H23.2834V15.3545Z" fill="#231C1C"/>
<path d="M28.1216 15.3545H31.0245V16.5669H28.1216V15.3545Z" fill="#231C1C"/>
<path d="M32.9597 15.3545H35.8626V16.5669H32.9597V15.3545Z" fill="#231C1C"/>
<path d="M37.7979 15.3545H40.7008V16.5669H37.7979V15.3545Z" fill="#231C1C"/>
<path d="M8.76895 33.54H11.6718V34.7524H8.76895V33.54Z" fill="#231C1C"/>
<path d="M13.6071 33.54H16.51V34.7524H13.6071V33.54Z" fill="#231C1C"/>
<path d="M18.4453 33.54H21.3481V34.7524H18.4453V33.54Z" fill="#231C1C"/>
<path d="M23.2834 33.54H26.1863V34.7524H23.2834V33.54Z" fill="#231C1C"/>
<path d="M28.1216 33.54H31.0245V34.7524H28.1216V33.54Z" fill="#231C1C"/>
<path d="M32.9597 33.54H35.8626V34.7524H32.9597V33.54Z" fill="#231C1C"/>
<path d="M37.7979 33.54H40.7008V34.7524H37.7979V33.54Z" fill="#231C1C"/>
<path d="M35.258 25.0532C35.258 25.3747 35.3854 25.6831 35.6122 25.9105C35.8391 26.1378 36.1467 26.2656 36.4675 26.2656C36.7883 26.2656 37.096 26.1378 37.3228 25.9105C37.5496 25.6831 37.6771 25.3747 37.6771 25.0532C37.6771 24.7316 37.5496 24.4233 37.3228 24.1959C37.096 23.9686 36.7883 23.8408 36.4675 23.8408C36.1467 23.8408 35.8391 23.9686 35.6122 24.1959C35.3854 24.4233 35.258 24.7316 35.258 25.0532Z" fill="#231C1C"/>
</svg>
