<svg width="20" height="10" viewBox="0 0 20 10" fill="none" xmlns="http://www.w3.org/2000/svg">
<path d="M18.4615 8.30769L17.5385 7.56923L10 1.53846L2.46154 7.56923L1.53846 8.30769" stroke="#FEC400" stroke-width="3" stroke-linecap="round" stroke-linejoin="round"/>
<path fill-rule="evenodd" clip-rule="evenodd" d="M15.0001 5.53851H16.7693V1.8462L10.6155 1.8462V2.03082L15.0001 5.53851Z" fill="#FEC400"/>
<path d="M16.7693 5.53851V6.56415C17.3358 6.56415 17.795 6.10496 17.795 5.53851L16.7693 5.53851ZM15.0001 5.53851L14.3594 6.3394C14.5412 6.48489 14.7672 6.56415 15.0001 6.56415V5.53851ZM16.7693 1.8462L17.795 1.8462C17.795 1.27976 17.3358 0.820563 16.7693 0.820563V1.8462ZM10.6155 1.8462V0.820563C10.049 0.820563 9.58984 1.27976 9.58984 1.8462H10.6155ZM10.6155 2.03082H9.58984C9.58984 2.34239 9.73147 2.63707 9.97477 2.83171L10.6155 2.03082ZM16.7693 4.51287H15.0001V6.56415H16.7693V4.51287ZM15.7437 1.8462V5.53851L17.795 5.53851V1.8462L15.7437 1.8462ZM10.6155 2.87184L16.7693 2.87184V0.820563L10.6155 0.820563V2.87184ZM11.6411 2.03082V1.8462L9.58984 1.8462V2.03082L11.6411 2.03082ZM9.97477 2.83171L14.3594 6.3394L15.6408 4.73762L11.2562 1.22993L9.97477 2.83171Z" fill="#FEC400"/>
</svg>
