<svg width="107" height="107" viewBox="0 0 107 107" fill="none" xmlns="http://www.w3.org/2000/svg">
<path d="M53.5 107C83.0473 107 107 83.0472 107 53.5001C107 23.9527 83.0473 0 53.5 0C23.9528 0 0 23.9527 0 53.5001C0 83.0472 23.9528 107 53.5 107Z" fill="url(#paint0_radial_287_6728)"/>
<path opacity="0.5" d="M53.5 107C83.0473 107 107 83.0472 107 53.5001C107 23.9527 83.0473 0 53.5 0C23.9528 0 0 23.9527 0 53.5001C0 83.0472 23.9528 107 53.5 107Z" fill="url(#paint1_radial_287_6728)"/>
<path d="M53.5 107C83.0473 107 107 83.0472 107 53.5001C107 23.9527 83.0473 0 53.5 0C23.9528 0 0 23.9527 0 53.5001C0 83.0472 23.9528 107 53.5 107Z" fill="url(#paint2_radial_287_6728)"/>
<path d="M53.5 73.2948C69.1821 73.2948 74.2312 88.8098 69.4163 86.3688C62.9962 83.1254 58.9504 82.791 53.5 82.791C48.0496 82.791 43.9702 83.0919 37.5837 86.3688C32.7688 88.8098 37.8179 73.2948 53.5 73.2948Z" fill="#643800"/>
<path d="M74.599 56.5758C74.599 56.5758 64.9355 57.0773 61.1237 50.8245C60.8895 50.4234 60.7224 49.9886 60.6555 49.5539C60.5218 48.6511 61.2239 47.6147 63.063 48.2164C74.4317 51.9949 80.2499 49.2195 84.6637 47.2134C86.3689 46.4443 88.2748 48.0827 87.6395 49.487C84.4966 56.5758 74.599 56.5758 74.599 56.5758Z" fill="url(#paint3_radial_287_6728)"/>
<path d="M86.5694 33.6044C86.7367 35.7445 84.4963 37.2491 80.5172 37.5166C77.14 37.7506 69.5831 36.4131 63.9991 30.1939C62.9625 29.057 64.3669 28.288 65.37 28.9901C68.7138 31.4309 77.374 34.2732 83.8944 33.1029C86.5025 32.6347 86.5694 33.6044 86.5694 33.6044Z" fill="url(#paint4_linear_287_6728)"/>
<path d="M32.4008 56.5758C32.4008 56.5758 42.0643 57.0773 45.8762 50.8245C46.1103 50.4234 46.2775 49.9886 46.3443 49.5539C46.4781 48.6511 45.7759 47.6147 43.9369 48.2164C32.5681 51.9949 26.75 49.2195 22.3362 47.2134C20.6309 46.4443 18.725 48.0827 19.3603 49.487C22.5035 56.5758 32.4008 56.5758 32.4008 56.5758Z" fill="url(#paint5_radial_287_6728)"/>
<path d="M20.4303 33.6044C20.263 35.7445 22.5033 37.2491 26.4824 37.5166C29.8596 37.7506 37.4166 36.4131 43.0005 30.1939C44.0371 29.057 42.6328 28.288 41.6297 28.9901C38.2859 31.4309 29.6256 34.2732 23.1053 33.1029C20.4972 32.6347 20.4303 33.6044 20.4303 33.6044Z" fill="url(#paint6_linear_287_6728)"/>
<path d="M46.1772 48.6173C45.843 48.1157 45.1408 47.8148 43.9369 48.2161C32.5683 51.9946 26.7502 49.2192 22.3364 47.2129C21.4336 46.8118 20.4638 47.0793 19.8621 47.6477C26.516 53.6663 40.6935 53.7668 46.1772 48.6173Z" fill="url(#paint7_linear_287_6728)"/>
<path d="M1.77225 33.7718C1.77225 40.8941 7.52334 46.6454 14.6456 46.6454C21.7677 46.6454 27.519 40.8941 27.519 33.7718C27.519 19.9956 14.6456 6.25288 14.6456 6.25288C14.6456 6.25288 1.77225 19.9622 1.77225 33.7718Z" fill="url(#paint8_linear_287_6728)"/>
<path opacity="0.5" d="M14.5119 6.4199C13.375 13.4751 6.21938 20.0957 7.79087 33.5377C8.96124 43.4686 23.841 44.0705 27.4857 34.5743C27.0844 41.2951 21.5002 46.6453 14.6456 46.6453C7.52334 46.6453 1.77225 40.894 1.77225 33.7717C1.77225 20.8648 13.0406 8.02493 14.5119 6.4199Z" fill="url(#paint9_radial_287_6728)"/>
<path d="M14.6456 46.6449C7.52334 46.6449 1.77225 40.8936 1.77225 33.7715C1.77225 21.3661 12.2047 8.99429 14.2779 6.65354C12.0375 13.6754 4.815 23.5061 4.815 33.0693C4.815 40.6261 15.9496 49.8214 26.7835 38.0849C25.0111 43.0671 20.2631 46.6449 14.6456 46.6449Z" fill="url(#paint10_radial_287_6728)"/>
<path d="M1.77225 33.7718C1.77225 40.8941 7.52334 46.6454 14.6456 46.6454C21.7677 46.6454 27.519 40.8941 27.519 33.7718C27.519 19.9956 14.6456 6.25288 14.6456 6.25288C14.6456 6.25288 1.77225 19.9622 1.77225 33.7718Z" fill="url(#paint11_radial_287_6728)"/>
<path d="M1.77225 33.7718C1.77225 40.8941 7.52334 46.6454 14.6456 46.6454C21.7677 46.6454 27.519 40.8941 27.519 33.7718C27.519 19.9956 14.6456 6.25288 14.6456 6.25288C14.6456 6.25288 1.77225 19.9622 1.77225 33.7718Z" fill="url(#paint12_radial_287_6728)"/>
<path d="M1.77225 33.7718C1.77225 40.8941 7.52334 46.6454 14.6456 46.6454C21.7677 46.6454 27.519 40.8941 27.519 33.7718C27.519 19.9956 14.6456 6.25288 14.6456 6.25288C14.6456 6.25288 1.77225 19.9622 1.77225 33.7718Z" fill="url(#paint13_radial_287_6728)"/>
<path d="M60.8229 48.6179C61.1573 48.1163 61.8595 47.8155 63.0633 48.2166C74.432 51.9951 80.2502 49.2198 84.664 47.2135C85.5668 46.8122 86.5365 47.0797 87.1383 47.6482C80.4842 53.667 66.3067 53.7672 60.8229 48.6179Z" fill="url(#paint14_linear_287_6728)"/>
<path d="M53.5 76.0366C62.7623 76.0366 68.6138 81.2528 71.155 85.5997C71.2888 82.4566 65.5375 73.2948 53.5 73.2948C41.4291 73.2948 35.6778 82.4566 35.8449 85.5997C38.3863 81.2864 44.2378 76.0366 53.5 76.0366Z" fill="url(#paint15_linear_287_6728)"/>
<defs>
<radialGradient id="paint0_radial_287_6728" cx="0" cy="0" r="1" gradientUnits="userSpaceOnUse" gradientTransform="translate(42.9738 31.8183) scale(64.5409 64.5409)">
<stop stop-color="#FFE030"/>
<stop offset="1" stop-color="#FFB92E"/>
</radialGradient>
<radialGradient id="paint1_radial_287_6728" cx="0" cy="0" r="1" gradientUnits="userSpaceOnUse" gradientTransform="translate(42.9738 31.8183) scale(50.7771 50.7771)">
<stop stop-color="#FFEA5F"/>
<stop offset="1" stop-color="#FFBC47" stop-opacity="0"/>
</radialGradient>
<radialGradient id="paint2_radial_287_6728" cx="0" cy="0" r="1" gradientUnits="userSpaceOnUse" gradientTransform="translate(13.3045 28.7539) rotate(72.6921) scale(48.3309 25.9953)">
<stop stop-color="#EB672A" stop-opacity="0.5"/>
<stop offset="0.3462" stop-color="#DC641B" stop-opacity="0.2846"/>
<stop offset="0.8036" stop-color="#C25E00" stop-opacity="0"/>
</radialGradient>
<radialGradient id="paint3_radial_287_6728" cx="0" cy="0" r="1" gradientUnits="userSpaceOnUse" gradientTransform="translate(74.4189 52.0147) rotate(177.118) scale(10.3419 4.59549)">
<stop offset="0.00132565" stop-color="#7A4400"/>
<stop offset="1" stop-color="#643800"/>
</radialGradient>
<linearGradient id="paint4_linear_287_6728" x1="76.0645" y1="40.7895" x2="75.3119" y2="33.5256" gradientUnits="userSpaceOnUse">
<stop offset="0.00132565" stop-color="#3C2200"/>
<stop offset="1" stop-color="#7A4400"/>
</linearGradient>
<radialGradient id="paint5_radial_287_6728" cx="0" cy="0" r="1" gradientUnits="userSpaceOnUse" gradientTransform="translate(32.5785 52.0149) rotate(2.88189) scale(10.3419 4.59549)">
<stop offset="0.00132565" stop-color="#7A4400"/>
<stop offset="1" stop-color="#643800"/>
</radialGradient>
<linearGradient id="paint6_linear_287_6728" x1="30.935" y1="40.7904" x2="31.6878" y2="33.5264" gradientUnits="userSpaceOnUse">
<stop offset="0.00132565" stop-color="#3C2200"/>
<stop offset="1" stop-color="#7A4400"/>
</linearGradient>
<linearGradient id="paint7_linear_287_6728" x1="33.2593" y1="45.3121" x2="32.4651" y2="54.1312" gradientUnits="userSpaceOnUse">
<stop offset="0.00132565" stop-color="#3C2200"/>
<stop offset="1" stop-color="#512D00"/>
</linearGradient>
<linearGradient id="paint8_linear_287_6728" x1="51.3948" y1="37.3273" x2="-21.2328" y2="16.3367" gradientUnits="userSpaceOnUse">
<stop stop-color="#D1F2FF"/>
<stop offset="0.668" stop-color="#80DAFE"/>
<stop offset="1" stop-color="#0099D6"/>
</linearGradient>
<radialGradient id="paint9_radial_287_6728" cx="0" cy="0" r="1" gradientUnits="userSpaceOnUse" gradientTransform="translate(16.1729 24.5716) rotate(169.572) scale(20.619 31.7514)">
<stop offset="0.0599486" stop-color="#80DAFE"/>
<stop offset="0.566" stop-color="#80DAFE"/>
<stop offset="1" stop-color="#0099D6"/>
</radialGradient>
<radialGradient id="paint10_radial_287_6728" cx="0" cy="0" r="1" gradientUnits="userSpaceOnUse" gradientTransform="translate(12.0526 26.8646) rotate(180) scale(16.6692 28.7593)">
<stop offset="0.3432" stop-color="#80DAFE"/>
<stop offset="1" stop-color="#0099D6"/>
</radialGradient>
<radialGradient id="paint11_radial_287_6728" cx="0" cy="0" r="1" gradientUnits="userSpaceOnUse" gradientTransform="translate(19.7442 22.7711) rotate(-103.604) scale(18.7082 8.24265)">
<stop stop-color="white" stop-opacity="0.25"/>
<stop offset="1" stop-color="white" stop-opacity="0"/>
</radialGradient>
<radialGradient id="paint12_radial_287_6728" cx="0" cy="0" r="1" gradientUnits="userSpaceOnUse" gradientTransform="translate(16.1617 23.3419) rotate(108.995) scale(29.2512 22.23)">
<stop offset="0.5858" stop-color="#0099D6" stop-opacity="0"/>
<stop offset="0.7213" stop-color="#1477E5" stop-opacity="0.1635"/>
<stop offset="0.9048" stop-color="#2D4FF8" stop-opacity="0.385"/>
<stop offset="1" stop-color="#3640FF" stop-opacity="0.5"/>
</radialGradient>
<radialGradient id="paint13_radial_287_6728" cx="0" cy="0" r="1" gradientUnits="userSpaceOnUse" gradientTransform="translate(19.7442 22.7711) rotate(-103.604) scale(23.5187 10.3621)">
<stop stop-color="white" stop-opacity="0.45"/>
<stop offset="1" stop-color="white" stop-opacity="0"/>
</radialGradient>
<linearGradient id="paint14_linear_287_6728" x1="73.7395" y1="45.3127" x2="74.5337" y2="54.1318" gradientUnits="userSpaceOnUse">
<stop offset="0.00132565" stop-color="#3C2200"/>
<stop offset="1" stop-color="#512D00"/>
</linearGradient>
<linearGradient id="paint15_linear_287_6728" x1="53.4994" y1="69.2482" x2="53.4994" y2="81.6282" gradientUnits="userSpaceOnUse">
<stop offset="0.00132565" stop-color="#3C2200"/>
<stop offset="1" stop-color="#512D00"/>
</linearGradient>
</defs>
</svg>
