<svg width="24" height="24" viewBox="0 0 24 24" fill="none" xmlns="http://www.w3.org/2000/svg">
<path d="M9.30605 6.3001C9.30605 4.80893 10.5149 3.6001 12.0061 3.6001C13.4972 3.6001 14.7061 4.80893 14.7061 6.3001V11.7001C14.7061 13.1913 13.4972 14.4001 12.0061 14.4001C10.5149 14.4001 9.30605 13.1913 9.30605 11.7001V6.3001Z" fill="#C2CCDE" fill-opacity="0.25"/>
<path d="M15.0061 20.4001H9.00605M12.0061 16.5001V20.4001M12.0061 16.5001C9.35509 16.5001 7.20605 14.3511 7.20605 11.7001V9.3001M12.0061 16.5001C14.657 16.5001 16.8061 14.3511 16.8061 11.7001V9.3001M3.59998 20.4001L20.4 3.6001M12.0061 14.4001C10.5149 14.4001 9.30605 13.1913 9.30605 11.7001V6.3001C9.30605 4.80893 10.5149 3.6001 12.0061 3.6001C13.4972 3.6001 14.7061 4.80893 14.7061 6.3001V11.7001C14.7061 13.1913 13.4972 14.4001 12.0061 14.4001Z" stroke="#414141" stroke-linecap="round" stroke-linejoin="round"/>
</svg>
