<svg width="35" height="35" viewBox="0 0 35 35" fill="none" xmlns="http://www.w3.org/2000/svg">
<g clip-path="url(#clip0_282_8138)">
<path d="M21.5218 0.473054C18.1545 -0.322023 14.627 -0.100749 11.3854 1.10889C8.14383 2.31854 5.33373 4.46223 3.31044 7.26889C1.28715 10.0756 0.141534 13.4192 0.0184601 16.8769C-0.104613 20.3346 0.800379 23.7512 2.619 26.6946C4.43763 29.6381 7.08821 31.9761 10.2356 33.4132C13.383 34.8502 16.8858 35.3217 20.3011 34.7681C23.7165 34.2144 26.8909 32.6604 29.4231 30.3027C31.9554 27.9449 33.7316 24.8893 34.5272 21.522C35.0555 19.286 35.1382 16.9678 34.7706 14.6998C34.4029 12.4317 33.5921 10.2584 32.3844 8.30374C31.1767 6.34912 29.5958 4.65154 27.732 3.30794C25.8682 1.96434 23.7579 1.00104 21.5218 0.473054Z" fill="#5F259F"/>
<path d="M25.4411 12.9341C25.4316 12.6015 25.2943 12.2853 25.0577 12.0514C24.8211 11.8174 24.5034 11.6837 24.1707 11.6779H21.8237L16.449 5.50567C16.1975 5.22317 15.871 5.01801 15.5073 4.91412C15.1437 4.81022 14.7581 4.81189 14.3953 4.91891L12.5325 5.50567C12.4664 5.52811 12.4066 5.56624 12.3583 5.61681C12.3101 5.66738 12.2748 5.72888 12.2555 5.79606C12.2362 5.86323 12.2334 5.93408 12.2474 6.00255C12.2615 6.07103 12.2918 6.13509 12.336 6.18926L18.2064 11.7605H9.31396C9.24937 11.7577 9.18489 11.7684 9.12466 11.7919C9.06443 11.8154 9.00977 11.8512 8.96418 11.897C8.9186 11.9429 8.8831 11.9978 8.85995 12.0581C8.8368 12.1185 8.82651 12.183 8.82974 12.2476V13.2246C8.8356 13.5597 8.97132 13.8794 9.2083 14.1164C9.44528 14.3534 9.765 14.4891 10.1001 14.4949H11.4701V19.1889C11.4701 22.7066 13.3272 24.7602 16.4547 24.7602C17.3912 24.789 18.3235 24.6221 19.1919 24.2703V27.4035C19.1892 27.6095 19.2278 27.8141 19.3055 28.005C19.3831 28.1959 19.4982 28.3694 19.6439 28.5151C19.7897 28.6609 19.9631 28.776 20.154 28.8536C20.345 28.9312 20.5495 28.9699 20.7556 28.9672H22.1228C22.2749 28.9566 22.4181 28.8913 22.5259 28.7835C22.6337 28.6757 22.6989 28.5325 22.7095 28.3804V14.4009H24.9512C25.0165 14.4046 25.0818 14.3945 25.143 14.3712C25.2041 14.3479 25.2596 14.312 25.3058 14.2657C25.3521 14.2194 25.3881 14.1639 25.4114 14.1028C25.4347 14.0417 25.4448 13.9763 25.4411 13.911V12.9341ZM19.1748 21.3394C18.5583 21.6091 17.8908 21.7422 17.218 21.7296C15.6543 21.7296 14.8739 20.9492 14.8739 19.1889V14.4978H19.1748V21.3337V21.3394Z" fill="white"/>
</g>
<defs>
<clipPath id="clip0_282_8138">
<rect width="35" height="35" fill="white"/>
</clipPath>
</defs>
</svg>
