<svg width="30" height="13" viewBox="0 0 30 13" fill="none" xmlns="http://www.w3.org/2000/svg">
<path d="M7.77965 10.9383C8.02358 10.8495 8.2687 10.7652 8.51489 10.6854C9.53037 10.3564 10.1282 9.26101 9.75337 8.26153C9.23747 6.88581 10.2545 5.41829 11.7237 5.41829L18.2767 5.41829C19.7459 5.41829 20.7629 6.88581 20.247 8.26153C19.8918 9.20877 20.4697 10.2454 21.4391 10.5347C21.8485 10.6569 22.2553 10.7914 22.6588 10.9383C23.464 11.2313 24.2476 11.5704 25.0063 11.9526C26.2571 12.5828 27.8494 12.0395 28.2822 10.7074L29.4228 7.19693C29.6106 6.61901 29.4475 5.98079 28.982 5.5902C25.0645 2.30303 20.1141 0.501231 15.0002 0.501232C9.88628 0.501232 4.93587 2.30303 1.01838 5.5902C0.552556 5.98107 0.389355 6.61973 0.577262 7.19805L1.7798 10.8991C2.21806 12.2479 3.84211 12.7848 5.09742 12.1249C5.95966 11.6716 6.85542 11.2747 7.77965 10.9383Z" fill="#C2CCDE" fill-opacity="0.25" stroke="white" stroke-linecap="round" stroke-linejoin="round"/>
</svg>
