<svg width="22" height="19" viewBox="0 0 22 19" fill="none" xmlns="http://www.w3.org/2000/svg">
<path fill-rule="evenodd" clip-rule="evenodd" d="M3.73836 3.73838C2.94897 4.52778 2.50549 5.59843 2.50549 6.71481C2.50549 7.83118 2.94897 8.90184 3.73836 9.69124L10.5416 16.4945C10.5426 16.4935 10.5435 16.4926 10.5445 16.4916L17.3449 9.69123C18.1343 8.90184 18.5778 7.83118 18.5778 6.71481C18.5778 5.59843 18.1343 4.52778 17.3449 3.73838C16.5555 2.94898 15.4848 2.50551 14.3685 2.50551C13.2521 2.50551 12.1814 2.94898 11.392 3.73838L10.7494 4.38102L10.5416 4.58879L10.3339 4.38102L9.69122 3.73838C8.90182 2.94898 7.83117 2.50551 6.71479 2.50551C5.59842 2.50551 4.52776 2.94898 3.73836 3.73838Z" fill="#FEC400"/>
<path d="M2.50549 6.71481H5.01103H2.50549ZM3.73836 9.69124L5.51005 7.91955L3.73836 9.69124ZM10.5416 16.4945L8.76994 18.2662C9.23982 18.7361 9.87712 19 10.5416 19C11.2061 19 11.8434 18.7361 12.3133 18.2662L10.5416 16.4945ZM10.5445 16.4916L8.77281 14.7199L10.5445 16.4916ZM17.3449 9.69123L19.1166 11.4629L17.3449 9.69123ZM18.5778 6.71481L21.0833 6.71481V6.71481L18.5778 6.71481ZM14.3685 2.50551L14.3685 -3.20189e-05H14.3685L14.3685 2.50551ZM11.392 3.73838L13.1637 5.51006L11.392 3.73838ZM10.7494 4.38102L8.97771 2.60934L8.97769 2.60936L10.7494 4.38102ZM10.5416 4.58879L8.76994 6.36047C9.23983 6.83036 9.87713 7.09433 10.5416 7.09433C11.2062 7.09433 11.8435 6.83034 12.3133 6.36045L10.5416 4.58879ZM10.3339 4.38102L8.56218 6.15271L10.3339 4.38102ZM9.69122 3.73838L7.91953 5.51006L9.69122 3.73838ZM6.71479 2.50551L6.71479 -3.20189e-05H6.71479V2.50551ZM1.96668 1.9667C0.707405 3.22598 -4.92828e-05 4.93392 -4.9223e-05 6.71481H5.01103C5.01103 6.26294 5.19053 5.82958 5.51005 5.51006L1.96668 1.9667ZM-4.9223e-05 6.71481C-4.92828e-05 8.49569 0.707406 10.2036 1.96668 11.4629L5.51005 7.91955C5.19053 7.60004 5.01103 7.16668 5.01103 6.71481H-4.9223e-05ZM1.96668 11.4629L8.76994 18.2662L12.3133 14.7228L5.51005 7.91955L1.96668 11.4629ZM12.3133 18.2662C12.3142 18.2653 12.3149 18.2645 12.3154 18.2641C12.3159 18.2636 12.3161 18.2634 12.3162 18.2633L8.77281 14.7199C8.77197 14.7208 8.77117 14.7216 8.77075 14.722C8.77022 14.7225 8.77005 14.7227 8.76994 14.7228L12.3133 18.2662ZM12.3162 18.2633L19.1166 11.4629L15.5732 7.91955L8.77281 14.7199L12.3162 18.2633ZM19.1166 11.4629C20.3758 10.2036 21.0833 8.49569 21.0833 6.71481L16.0722 6.71481C16.0722 7.16667 15.8927 7.60003 15.5732 7.91955L19.1166 11.4629ZM21.0833 6.71481C21.0833 4.93392 20.3758 3.22598 19.1166 1.9667L15.5732 5.51006C15.8927 5.82958 16.0722 6.26294 16.0722 6.71481L21.0833 6.71481ZM19.1166 1.9667C17.8573 0.707421 16.1493 -3.20189e-05 14.3685 -3.20189e-05L14.3685 5.01104C14.8203 5.01104 15.2537 5.19055 15.5732 5.51006L19.1166 1.9667ZM14.3685 -3.20189e-05C12.5876 -3.08241e-05 10.8796 0.707421 9.62035 1.9667L13.1637 5.51006C13.4832 5.19055 13.9166 5.01104 14.3685 5.01104L14.3685 -3.20189e-05ZM9.62035 1.9667L8.97771 2.60934L12.5211 6.15271L13.1637 5.51006L9.62035 1.9667ZM8.97769 2.60936L8.76992 2.81713L12.3133 6.36045L12.5211 6.15269L8.97769 2.60936ZM12.3133 2.81711L12.1055 2.60934L8.56218 6.15271L8.76994 6.36047L12.3133 2.81711ZM12.1055 2.60934L11.4629 1.9667L7.91953 5.51006L8.56218 6.15271L12.1055 2.60934ZM11.4629 1.9667C10.2036 0.707422 8.49568 -3.17799e-05 6.71479 -3.20189e-05L6.71479 5.01104C7.16666 5.01104 7.60002 5.19055 7.91953 5.51006L11.4629 1.9667ZM6.71479 -3.20189e-05C4.93391 -3.22578e-05 3.22596 0.707422 1.96668 1.9667L5.51005 5.51006C5.82957 5.19055 6.26292 5.01104 6.71479 5.01104L6.71479 -3.20189e-05Z" fill="#FEC400"/>
</svg>
