<svg width="35" height="35" viewBox="0 0 35 35" fill="none" xmlns="http://www.w3.org/2000/svg">
<path d="M31.7877 8.36312C28.3355 6.37035 23.9212 7.55449 21.9262 11.0067L16.8974 19.718C15.4423 22.2336 17.3155 23.1126 19.4043 24.365L24.2433 27.1579C25.8819 28.1031 27.975 27.542 28.9202 25.9055L34.0898 16.9529C35.8265 13.9446 34.796 10.0999 31.7877 8.36312Z" fill="#EA4335"/>
<path d="M26.0975 11.9685L21.2585 9.17566C18.5873 7.69282 17.0746 7.59467 15.9779 9.33782L8.84107 21.6977C6.84827 25.1477 8.03456 29.56 11.4846 31.5485C14.4929 33.2852 18.3377 32.2547 20.0744 29.2463L27.3478 16.6475C28.2972 15.0089 27.7361 12.9137 26.0975 11.9685Z" fill="#FBBC04"/>
<path d="M27.0288 5.61486L23.63 3.65196C19.8707 1.4821 15.0637 2.76865 12.8939 6.52803L6.42266 17.7358C5.46681 19.3893 6.03435 21.5058 7.68791 22.4595L11.4942 24.6571C13.3739 25.7432 15.7763 25.0988 16.8623 23.2191L24.2552 10.4155C25.7871 7.76338 29.1774 6.85447 31.8294 8.38639L27.0288 5.61486Z" fill="#34A853"/>
<path d="M13.8131 9.73491L10.1391 7.61839C8.50049 6.67535 6.40747 7.23434 5.4623 8.86867L1.05431 16.4856C-1.11556 20.2343 0.170996 25.0306 3.93038 27.1941L6.72751 28.8049L10.1199 30.7593L11.5921 31.6063C8.97844 29.8568 8.14847 26.3513 9.74651 23.5904L10.888 21.619L15.0677 14.3968C16.0107 12.7668 15.4496 10.6779 13.8131 9.73491Z" fill="#4285F4"/>
</svg>
