<svg width="42" height="42" viewBox="0 0 42 42" fill="none" xmlns="http://www.w3.org/2000/svg">
<path d="M28.1906 23.9853C27.9558 23.8758 27.7234 23.7623 27.4934 23.6449C26.5446 23.1605 25.3498 23.5116 24.909 24.4814C24.3023 25.8162 22.5491 26.1341 21.5123 25.0973L16.8883 20.4733C15.8515 19.4365 16.1694 17.6833 17.5042 17.0766C18.4233 16.6588 18.747 15.5196 18.2671 14.6314C18.0644 14.2562 17.8723 13.8743 17.6912 13.4859C17.3298 12.7109 17.0161 11.9187 16.7505 11.1136C16.3125 9.7863 14.8056 9.0461 13.5602 9.68066L10.2781 11.353C9.73782 11.6283 9.40256 12.1937 9.45541 12.7978C9.9002 17.8817 12.122 22.6464 15.7306 26.255C19.3392 29.8636 24.1039 32.0854 29.1878 32.5302C29.7923 32.5831 30.3582 32.2476 30.6337 31.7069L32.3967 28.2467C33.0392 26.9857 32.2721 25.4608 30.9206 25.0407C29.9924 24.7521 29.0802 24.4001 28.1906 23.9853Z" fill="#C2CCDE" fill-opacity="0.25" stroke="white" stroke-linecap="round" stroke-linejoin="round"/>
</svg>
